<svg xmlns="http://www.w3.org/2000/svg" viewBox="0 0 595.276 841.89" height="841.89pt" width="595.276pt"><g xmlns="http://www.w3.org/2000/svg" transform="matrix(-1 0 0 -1 595.276 841.89)"><metadata id="metadata3039"><RDF xmlns="http://www.w3.org/1999/02/22-rdf-syntax-ns#"><Work p5:about="" xmlns:p5="http://www.w3.org/1999/02/22-rdf-syntax-ns#" xmlns="http://creativecommons.org/ns#"><format xmlns="http://purl.org/dc/elements/1.1/">image/svg+xml</format><type p5:resource="http://purl.org/dc/dcmitype/StillImage" xmlns="http://purl.org/dc/elements/1.1/" /><title xmlns="http://purl.org/dc/elements/1.1/"></title></Work></RDF></metadata><defs id="defs3037" /><namedview pagecolor="#ffffff" bordercolor="#666666" borderopacity="1" objecttolerance="10" gridtolerance="10" guidetolerance="10" p3:pageopacity="0" p3:pageshadow="2" p3:window-width="1024" p3:window-height="708" id="namedview3035" showgrid="false" p3:zoom="0.46846973" p3:cx="372.04749" p3:cy="433.62355" p3:window-x="-4" p3:window-y="-4" p3:window-maximized="1" p3:current-layer="svg3021" xmlns:p3="http://www.inkscape.org/namespaces/inkscape" xmlns="http://sodipodi.sourceforge.net/DTD/sodipodi-0.dtd" /><g id="g3023" transform="translate(269.81467,-650.62904)"><path style="fill:#2c2c2b;stroke:none" d="m -126.267,1038.85 c 22.737,50.44 15.792,102.75 -15.51,116.87 -31.303,14.12 -75.11,-15.31 -97.845,-65.74 -22.737,-50.43 -15.793,-102.745 15.51,-116.863 31.303,-14.114 75.108,15.317 97.845,65.733 z" id="path3025" p4:connector-curvature="0" xmlns:p4="http://www.inkscape.org/namespaces/inkscape" /><path style="fill:#2c2c2b;stroke:none" d="m 183.155,1038.85 c -22.738,50.44 -15.793,102.75 15.512,116.87 31.303,14.12 75.106,-15.31 97.846,-65.74 22.734,-50.43 15.789,-102.745 -15.513,-116.863 -31.301,-14.114 -75.108,15.317 -97.845,65.733 z" id="path3027" p4:connector-curvature="0" xmlns:p4="http://www.inkscape.org/namespaces/inkscape" /><path style="fill:#2c2c2b;stroke:none" d="m 6.7856,937.757 c 11.6548,54.069 -6.1108,103.763 -39.6787,111.003 -33.5654,7.23 -70.2249,-30.74 -81.8779,-84.804 -11.653,-54.068 6.112,-103.764 39.6792,-110.997 33.5669,-7.236 70.2246,30.729 81.8774,84.798 z" id="path3029" p4:connector-curvature="0" xmlns:p4="http://www.inkscape.org/namespaces/inkscape" /><path style="fill:#2c2c2b;stroke:none" d="m 49.2676,937.803 c -11.6446,54.068 6.1084,103.767 39.6738,110.997 33.5676,7.24 70.2256,-30.73 81.8776,-84.797 11.654,-54.069 -6.109,-103.765 -39.678,-110.998 -33.5678,-7.234 -70.225,30.729 -81.8734,84.798 z" id="path3031" p4:connector-curvature="0" xmlns:p4="http://www.inkscape.org/namespaces/inkscape" /><path style="fill:#2c2c2b;stroke:none" d="m -35.2275,1118.5 c -8.1924,14.15 -46.1563,60.99 -72.4145,76.97 -26.256,15.98 -58.792,39.38 -53.332,93.11 5.457,53.74 60.575,76.74 96.8597,74.7 36.2867,-2.03 104.6993,-8.71 153.543,-1.94 48.8413,6.77 110.4863,1.64 124.9223,-49.81 14.436,-51.45 -17.85,-84.23 -43.044,-102.83 -25.193,-18.59 -67.265,-74.2 -80.2269,-99.73 -12.96,-25.52 -78.9268,-72.26 -126.3076,9.53 z" id="path3033" p4:connector-curvature="0" xmlns:p4="http://www.inkscape.org/namespaces/inkscape" /></g></g></svg>