<svg xmlns="http://www.w3.org/2000/svg" width="128" height="128" viewBox="0 0 128 128">
  <title>CHOCOLATE</title>
  <g>
    <path d="M29.406,49.577V6.307H84.345a12.277,12.277,0,0,0,5.538,8.89l.775,6.145,7.936,2.342V49.577Z" fill="#dc8758"/>
    <rect x="26.039" y="49.577" width="75.922" height="72.116" fill="#f07281"/>
    <polygon points="26.039 49.577 40.937 78.959 101.961 49.577 26.039 49.577" fill="#eaf6ff"/>
    <g>
      <path d="M101.961,47.827h-1.617V23.684a1.749,1.749,0,0,0-1.254-1.678l-6.839-2.019-.631-5.008a1.752,1.752,0,0,0-.793-1.256A10.444,10.444,0,0,1,86.092,6.2a1.75,1.75,0,0,0-1.747-1.642H29.406a1.75,1.75,0,0,0-1.75,1.75V18.214a1.75,1.75,0,0,0,3.5,0V8.057H50.719V33.4H31.156V27.577a1.75,1.75,0,0,0-3.5,0v20.25H26.039a1.75,1.75,0,0,0-1.75,1.75v72.116a1.751,1.751,0,0,0,1.75,1.75h75.922a1.751,1.751,0,0,0,1.75-1.75V107.334a1.75,1.75,0,0,0-3.5,0v12.609H27.789V56.9L39.376,79.751a1.748,1.748,0,0,0,2.32.785l58.515-28.175v31.58a1.75,1.75,0,0,0,3.5,0V49.577A1.75,1.75,0,0,0,101.961,47.827Zm-24.68,0V36.9H96.844V47.827Zm-23.062,0V36.9H73.781V47.827ZM88.246,16.2l.676,5.362a1.751,1.751,0,0,0,1.241,1.46l6.681,1.972V33.4H77.281V8.057H82.87A14.015,14.015,0,0,0,88.246,16.2ZM54.219,8.057H73.781V33.4H54.219ZM31.156,36.9H50.719V47.827H31.156ZM28.889,51.327h65.4L41.723,76.639Z"/>
      <path d="M101.961,91.848a1.751,1.751,0,0,0-1.75,1.75v4.5a1.75,1.75,0,0,0,3.5,0V93.6A1.751,1.751,0,0,0,101.961,91.848Z"/>
    </g>
  </g>
</svg>
